<svg width="20" height="20" fill="none" xmlns="http://www.w3.org/2000/svg"><path d="M4.785 6.934h-3.75a.301.301 0 00-.302.3v12.05a.3.3 0 00.302.3h3.75a.301.301 0 00.301-.3V7.233a.301.301 0 00-.3-.3zM2.911.945A2.476 2.476 0 00.437 3.417 2.477 2.477 0 002.91 5.891a2.476 2.476 0 002.473-2.474A2.475 2.475 0 002.911.945zm11.414 5.688c-1.507 0-2.62.647-3.296 1.383v-.782a.301.301 0 00-.301-.302H7.136a.301.301 0 00-.301.302v12.048c0 .166.135.301.301.301h3.743a.301.301 0 00.3-.301v-5.961c0-2.009.546-2.791 1.947-2.791 1.525 0 1.646 1.254 1.646 2.894v5.858a.3.3 0 00.301.301h3.744a.301.301 0 00.301-.3v-6.61c0-2.987-.57-6.04-4.793-6.04z" fill="#fff"/></svg>