<svg width="24" height="19" fill="none" xmlns="http://www.w3.org/2000/svg"><path d="M22.857 2.346a8.415 8.415 0 01-1.085.403 4.903 4.903 0 00.976-1.747.372.372 0 00-.12-.4.356.356 0 00-.409-.029 8.447 8.447 0 01-2.522 1.015A4.793 4.793 0 0016.328.19c-2.653 0-4.812 2.198-4.812 4.899 0 .212.013.424.04.633C8.261 5.427 5.2 3.78 3.098 1.155a.358.358 0 00-.593.047 4.963 4.963 0 00-.652 2.463c0 1.18.414 2.3 1.145 3.176a4.042 4.042 0 01-.644-.293A.356.356 0 002 6.55a.37.37 0 00-.182.311v.066c0 1.761.931 3.348 2.356 4.212a4.113 4.113 0 01-.367-.054.358.358 0 00-.338.117.373.373 0 00-.074.357 4.844 4.844 0 003.526 3.283 8.404 8.404 0 01-4.551 1.322c-.341 0-.684-.02-1.02-.06a.362.362 0 00-.383.24.371.371 0 00.146.434 12.813 12.813 0 007.018 2.094c4.9 0 7.965-2.352 9.673-4.324 2.13-2.46 3.353-5.716 3.353-8.934 0-.134-.003-.27-.007-.405a9.454 9.454 0 002.154-2.321.373.373 0 00-.024-.442.357.357 0 00-.424-.1z" fill="#fff"/></svg>