<svg width="31" height="33" fill="none" xmlns="http://www.w3.org/2000/svg"><path d="M7 22.935c0-1.22.104-2.324.312-3.31.208-.987.544-1.942 1.007-2.866.463-.924 1.077-1.894 1.842-2.91a238.05 238.05 0 012.74-3.518 77.675 77.675 0 002.946-3.977 40.924 40.924 0 002.726-4.543c.355-.691.68-1.166.971-1.424A1.554 1.554 0 0120.611 0c.585 0 1.046.181 1.384.543.339.362.508.845.508 1.45 0 .696-.143 1.454-.427 2.276a32.504 32.504 0 01-.984 2.494c-.371.84-.7 1.645-.984 2.414-.285.768-.427 1.446-.427 2.034 0 .716.27 1.296.81 1.738.541.442 1.246.663 2.114.663h5.92c.695 0 1.281.238 1.759.715.477.477.716 1.063.716 1.759 0 .835-.227 1.428-.681 1.779-.247.2-.381.418-.404.652-.023.234.083.446.317.637.16.137.291.358.392.665.1.307.15.636.15.988 0 .453-.095.869-.286 1.248-.192.38-.441.66-.748.84-.23.138-.383.31-.458.516-.075.206-.017.456.175.75.145.188.26.418.349.69.088.27.132.576.132.916 0 1.067-.543 1.83-1.63 2.288-.207.103-.348.242-.421.417-.074.176-.032.397.124.665.123.186.21.38.263.584.053.204.08.419.08.646a1.95 1.95 0 01-.59 1.42c-.393.397-.95.681-1.672.851-.487.126-1.122.22-1.903.282-.782.063-1.675.089-2.68.077l-2.282-.034c-2.407-.012-4.53-.448-6.367-1.307-1.838-.86-3.275-2.038-4.309-3.536C7.517 26.622 7 24.894 7 22.935z" fill="#0037FC"/><path d="M0 22.54c0-1.628.267-3.085.8-4.372.535-1.287 1.24-2.303 2.116-3.05C3.792 14.374 4.736 14 5.747 14h2.485c-.923 1.38-1.582 2.733-1.975 4.062-.393 1.328-.59 2.844-.59 4.547 0 1.774.383 3.378 1.147 4.811A10.157 10.157 0 0010 31H6.329c-1.112 0-2.15-.373-3.116-1.12-.965-.745-1.742-1.759-2.33-3.04C.294 25.56 0 24.126 0 22.54z" fill="#0037FC"/></svg>