<svg width="47" height="31" fill="none" xmlns="http://www.w3.org/2000/svg"><path d="M15.447 30.892c2.099 0 4.077-.403 5.933-1.21a15.813 15.813 0 004.92-3.345 15.893 15.893 0 003.355-4.929c.813-1.863 1.22-3.844 1.22-5.943 0-2.112-.407-4.1-1.22-5.962A15.903 15.903 0 0026.3 4.574a15.905 15.905 0 00-4.93-3.354C19.508.407 17.52 0 15.409 0c-2.1 0-4.077.407-5.933 1.22a15.93 15.93 0 00-4.92 3.354 15.78 15.78 0 00-3.345 4.93C.403 11.365 0 13.353 0 15.464c0 2.1.406 4.08 1.22 5.943a15.892 15.892 0 003.354 4.929 15.813 15.813 0 004.92 3.345c1.857.807 3.84 1.21 5.953 1.21z" fill="#0037FC"/><path d="M15.408 29.937c-2.01 0-3.886-.373-5.63-1.118a14.486 14.486 0 01-4.601-3.102 14.352 14.352 0 01-3.093-4.61c-.739-1.75-1.108-3.631-1.108-5.642 0-2.01.37-3.89 1.108-5.641a14.418 14.418 0 017.674-7.712c1.744-.746 3.621-1.118 5.63-1.118 2.011 0 3.892.372 5.642 1.118a14.59 14.59 0 014.62 3.102 14.398 14.398 0 013.112 4.61c.745 1.75 1.118 3.63 1.118 5.641.012 2.01-.354 3.891-1.1 5.642a14.472 14.472 0 01-7.711 7.712c-1.751.745-3.638 1.118-5.66 1.118z" fill="#0037FC"/><path d="M15.467 10.191c.711 0 1.318-.254 1.82-.761a2.51 2.51 0 00.753-1.83c0-.738-.25-1.358-.753-1.86a2.481 2.481 0 00-1.82-.752c-.738 0-1.361.254-1.87.762a2.517 2.517 0 00-.761 1.85c0 .724.254 1.338.762 1.839.508.501 1.13.752 1.869.752z" fill="#fff"/><path d="M35.383 22.4a.41.41 0 00.363.148.621.621 0 00.384-.177 9.618 9.618 0 002.079-3.116 9.75 9.75 0 00.738-3.79 9.817 9.817 0 00-.738-3.799A9.387 9.387 0 0036.13 8.56a.55.55 0 00-.384-.185.433.433 0 00-.364.157.423.423 0 00-.096.348.61.61 0 00.188.356c.85.74 1.478 1.66 1.885 2.757a9.91 9.91 0 01.61 3.473 9.91 9.91 0 01-.61 3.474 6.657 6.657 0 01-1.885 2.756.535.535 0 00-.188.347c-.02.14.013.26.096.358zm5.135 5.306a.51.51 0 00.38.138.6.6 0 00.383-.164 18.002 18.002 0 003.737-5.506c.914-2.082 1.37-4.319 1.37-6.709 0-2.39-.456-4.63-1.37-6.719a17.728 17.728 0 00-3.736-5.496.639.639 0 00-.385-.174.453.453 0 00-.379.149.385.385 0 00-.08.349.721.721 0 00.192.355 16.51 16.51 0 013.51 5.181c.847 1.962 1.27 4.08 1.27 6.355 0 2.262-.423 4.377-1.27 6.345A16.476 16.476 0 0140.63 27a.63.63 0 00-.193.347c-.03.14-.002.26.081.358z" fill="#0037FC"/></svg>