<svg width="30" height="30" fill="none" xmlns="http://www.w3.org/2000/svg"><path d="M28.182 7.48C25.462 2.85 20.438 0 15 0 9.562 0 4.537 2.851 1.818 7.48l.914 16.156L28.182 7.48z" fill="#0037FC"/><path d="M8.59 18.636L2.03 7.273A15.151 15.151 0 0015.15 30L30 14.848 8.59 18.636z" fill="#0037FC"/><path d="M21.754 18.637L15.454 30c5.197-.001 10-2.89 12.597-7.577a15.697 15.697 0 000-15.15H15.453l6.3 11.364z" fill="#408DFF"/><path d="M15 22.727a7.727 7.727 0 100-15.454 7.727 7.727 0 000 15.454z" fill="#fff"/><path d="M15 20.909A5.91 5.91 0 1015 9.09a5.91 5.91 0 000 11.819z" fill="#0037FC"/></svg>