<svg width="27" height="33" fill="none" xmlns="http://www.w3.org/2000/svg"><path d="M13.197 33c.194 0 .393-.046.599-.137.205-.091.382-.177.53-.257a357.703 357.703 0 005.811-3.671c1.558-1.01 2.796-1.946 3.714-2.807.919-.862 1.572-1.766 1.96-2.713.388-.947.582-2.071.582-3.372V7.206c0-.959-.151-1.652-.453-2.08-.303-.428-.91-.818-1.823-1.172a60.27 60.27 0 01-1.951-.745 112.19 112.19 0 00-1.926-.753 192.48 192.48 0 01-1.926-.744A96.975 96.975 0 0016.38.976c-.65-.24-1.3-.474-1.951-.702a9.373 9.373 0 00-.625-.197A2.302 2.302 0 0013.197 0c-.206 0-.405.026-.6.077a6.758 6.758 0 00-.616.197 211.96 211.96 0 00-3.894 1.472c-.644.25-1.289.5-1.934.744l-1.925.736c-.64.246-1.29.488-1.952.728-.912.342-1.52.73-1.822 1.164C.15 5.55 0 6.248 0 7.206v12.837c0 1.3.2 2.416.6 3.346.398.93 1.06 1.823 1.985 2.679.924.856 2.162 1.794 3.714 2.816a411.302 411.302 0 005.785 3.722c.137.08.308.166.514.257.205.091.405.137.599.137z" fill="#0037FC"/><path d="M5.82 17.03c0 .137.042.24.128.309a.518.518 0 00.333.102h5.991L9.003 26.24c-.091.228-.091.414 0 .556a.467.467 0 00.402.223c.177.006.334-.083.47-.265l9.69-12.154c.125-.205.188-.36.188-.462 0-.137-.04-.24-.12-.308a.483.483 0 00-.325-.103H13.3l3.27-8.798c.102-.228.108-.413.016-.556a.474.474 0 00-.41-.222c-.183-.006-.343.082-.48.265L6.008 16.568c-.126.206-.189.36-.189.463z" fill="#fff"/></svg>