<svg width="31" height="30" fill="none" xmlns="http://www.w3.org/2000/svg"><path d="M15 30c2.074 0 4.014-.39 5.82-1.169s3.4-1.857 4.784-3.235a15.123 15.123 0 003.243-4.783c.779-1.811 1.168-3.749 1.168-5.813 0-2.064-.39-4.002-1.168-5.813a15.122 15.122 0 00-3.243-4.783 15.305 15.305 0 00-4.784-3.235C19.014.389 17.074 0 15 0c-2.064 0-4.002.39-5.813 1.169a15.096 15.096 0 00-4.775 3.235 15.362 15.362 0 00-3.236 4.783C.392 11 0 12.936 0 15c0 2.064.39 4.002 1.169 5.813a15.188 15.188 0 003.235 4.783 15.188 15.188 0 004.783 3.235C11 29.611 12.936 30 15 30z" fill="#0037FC"/><path d="M5.465 14.257c0 2.487.893 4.629 2.678 6.424.082.083.18.127.294.132.114.005.206-.044.279-.147.154-.186.139-.372-.047-.558-1.62-1.6-2.43-3.55-2.43-5.85 0-2.313.81-4.258 2.43-5.837a.458.458 0 00.14-.286.366.366 0 00-.093-.287.318.318 0 00-.271-.123.41.41 0 00-.302.123 9.08 9.08 0 00-1.99 2.957 8.903 8.903 0 00-.688 3.452zm3.839 0c0 1.435.495 2.668 1.486 3.7a.386.386 0 00.302.116.386.386 0 00.286-.131.362.362 0 00.1-.302.485.485 0 00-.193-.302c-.805-.754-1.207-1.78-1.207-3.08 0-.568.103-1.11.31-1.626a5.072 5.072 0 01.944-1.486.404.404 0 00.131-.263.313.313 0 00-.085-.279.367.367 0 00-.294-.155.381.381 0 00-.294.14c-.99 1-1.486 2.223-1.486 3.668zm4.365 0c0 .31.088.578.263.805.175.227.403.382.681.465v9.675c0 .113.036.208.109.286a.364.364 0 00.278.116.36.36 0 00.287-.116.422.422 0 00.1-.287v-9.675c.279-.082.506-.237.681-.464.176-.227.263-.495.263-.805a1.27 1.27 0 00-.379-.936 1.29 1.29 0 00-.952-.38c-.371 0-.686.127-.944.38a1.26 1.26 0 00-.387.936zm6.269 0c0 .65-.103 1.234-.31 1.75a3.69 3.69 0 01-.897 1.33.524.524 0 00-.201.303.342.342 0 00.092.302.44.44 0 00.302.131.386.386 0 00.302-.116c.99-1.032 1.486-2.265 1.486-3.7 0-1.444-.495-2.667-1.486-3.668a.381.381 0 00-.294-.14.411.411 0 00-.31.155c-.072.072-.098.165-.077.279.02.113.067.2.14.263.412.474.724.97.936 1.486.212.516.317 1.058.317 1.625zm3.839 0c0 2.301-.816 4.252-2.446 5.851-.176.186-.191.372-.047.558.083.103.181.152.294.147a.43.43 0 00.295-.132c1.785-1.795 2.678-3.937 2.678-6.424a8.89 8.89 0 00-.69-3.452 9.08 9.08 0 00-1.988-2.957.41.41 0 00-.302-.123.362.362 0 00-.287.123.398.398 0 00-.077.287c.01.108.052.204.124.286 1.63 1.58 2.446 3.524 2.446 5.836z" fill="#fff"/></svg>