<svg width="30" height="30" fill="none" xmlns="http://www.w3.org/2000/svg"><path d="M15.007 30c2.057 0 3.991-.391 5.801-1.174a15.35 15.35 0 004.788-3.238 15.073 15.073 0 003.238-4.78C29.611 18.998 30 17.06 30 14.993c0-2.057-.389-3.991-1.167-5.802a15.216 15.216 0 00-8.02-8.02C18.998.392 17.062.001 15.005.001c-2.066 0-4.003.39-5.814 1.172a15.24 15.24 0 00-4.78 3.238 15.24 15.24 0 00-3.239 4.781C.391 11.001 0 12.936 0 14.993c0 2.066.391 4.005 1.174 5.815a15.254 15.254 0 003.238 4.78 15.252 15.252 0 004.78 3.238C11.001 29.61 12.94 30 15.006 30z" fill="#0037FC"/><path d="M1.525 8.85a26.436 26.436 0 004.84 2.89 25.96 25.96 0 0011.3 2.377c2.08-.02 4.09-.282 6.032-.79a25.434 25.434 0 005.488-2.123l-.28-.84A24.798 24.798 0 0117.65 13.27c-2.953.048-5.776-.39-8.467-1.315-2.69-.925-5.128-2.226-7.31-3.904l-.349.799zm-.998 7.956a25.81 25.81 0 006.455 3.938 26.72 26.72 0 0014.54 1.8 25.822 25.822 0 007.086-2.18l.146-1.038a25.572 25.572 0 01-21.777.488 25.007 25.007 0 01-6.439-4.14l-.01 1.132z" fill="#fff"/><path d="M7.586 27.288l1.066.468a15.947 15.947 0 01-.503-1.59 25.746 25.746 0 01-.365-1.626c-.628-3.047-.705-6.043-.231-8.986.473-2.943 1.41-5.7 2.81-8.273A25.567 25.567 0 0115.716.485l-1.07-.184A26.147 26.147 0 009.42 7.248a26.628 26.628 0 00-2.706 8.361c-.448 2.965-.369 5.991.237 9.078.078.441.17.88.276 1.32.107.438.227.865.36 1.28zm10.224 1.815l.868-.252a25.83 25.83 0 01-3.048-6.55c-.722-2.355-1.083-4.816-1.083-7.384 0-2.549.36-4.998 1.08-7.348a25.452 25.452 0 013.04-6.522l-.782-.375a26.23 26.23 0 00-3.103 6.708 25.85 25.85 0 00-1.095 7.537c0 2.607.36 5.11 1.08 7.505a26.716 26.716 0 003.043 6.68z" fill="#fff"/><path d="M27.12 23.178l.418-.725a16.818 16.818 0 01-4.33-3.494 17.032 17.032 0 01-3-4.78c-.745-1.778-1.175-3.677-1.29-5.696a16.593 16.593 0 011.099-6.942l-.808-.27a17.24 17.24 0 00-.944 3.511 18.353 18.353 0 00-.208 3.745c.105 2.109.55 4.095 1.335 5.957a17.906 17.906 0 007.727 8.694zM8.017 14.09c.535 0 .993-.19 1.374-.572a1.89 1.89 0 00.572-1.39c0-.526-.19-.98-.572-1.36-.381-.38-.84-.57-1.374-.57-.535 0-.993.19-1.375.57-.381.38-.572.834-.572 1.36 0 .545.191 1.009.572 1.39.382.382.84.572 1.375.572z" fill="#fff"/><path d="M19.768 15.593a1.69 1.69 0 001.25-.53c.348-.352.521-.773.521-1.261 0-.485-.173-.902-.52-1.25a1.704 1.704 0 00-1.251-.522 1.73 1.73 0 00-1.26.522 1.695 1.695 0 00-.528 1.25c0 .488.175.909.527 1.262a1.72 1.72 0 001.26.529zm-4.154 8.796a1.85 1.85 0 001.36-.558c.37-.372.556-.826.556-1.36a1.85 1.85 0 00-.556-1.36 1.85 1.85 0 00-1.36-.557c-.546 0-1.004.186-1.376.557a1.849 1.849 0 00-.556 1.36c0 .534.185.988.556 1.36.372.372.83.558 1.376.558z" fill="#fff"/></svg>