<svg width="27" height="33" fill="none" xmlns="http://www.w3.org/2000/svg"><path d="M13.197 33c.194 0 .393-.046.599-.137.205-.091.382-.177.53-.257a357.703 357.703 0 005.811-3.671c1.558-1.01 2.796-1.946 3.714-2.807.919-.862 1.572-1.766 1.96-2.713.388-.947.582-2.071.582-3.372V7.206c0-.959-.151-1.652-.453-2.08-.303-.428-.91-.818-1.823-1.172a60.27 60.27 0 01-1.951-.745 112.19 112.19 0 00-1.926-.753 192.48 192.48 0 01-1.926-.744A96.975 96.975 0 0016.38.976c-.65-.24-1.3-.474-1.951-.702a9.373 9.373 0 00-.625-.197A2.302 2.302 0 0013.197 0c-.206 0-.405.026-.6.077a6.758 6.758 0 00-.616.197 211.96 211.96 0 00-3.894 1.472c-.644.25-1.289.5-1.934.744l-1.925.736c-.64.246-1.29.488-1.952.728-.912.342-1.52.73-1.822 1.164C.15 5.55 0 6.248 0 7.206v12.837c0 1.3.2 2.416.6 3.346.398.93 1.06 1.823 1.985 2.679.924.856 2.162 1.794 3.714 2.816a411.302 411.302 0 005.785 3.722c.137.08.308.166.514.257.205.091.405.137.599.137z" fill="#0037FC"/><path d="M11.383 23.74c.148 0 .29-.069.428-.206l9.277-14.36a.52.52 0 00.06-.137.542.542 0 00.025-.154c0-.103-.043-.2-.128-.291a.399.399 0 00-.3-.137c-.125 0-.262.08-.41.24l-8.97 13.898-5.1-5.854a.38.38 0 00-.171-.145.573.573 0 00-.223-.043.425.425 0 00-.428.428c0 .103.052.228.154.377l5.358 6.178c.068.069.134.12.197.155.062.034.14.05.23.05z" fill="#fff"/></svg>