<svg width="36" height="27" fill="none" xmlns="http://www.w3.org/2000/svg"><path d="M4.603 27H30.75c1.521 0 2.668-.383 3.442-1.148.774-.765 1.161-1.898 1.161-3.4V4.547c0-1.502-.386-2.635-1.16-3.4C33.416.383 32.27 0 30.748 0H4.603c-1.52 0-2.667.383-3.441 1.148C.387 1.913 0 3.046 0 4.548v17.903c0 1.512.387 2.648 1.162 3.408C1.936 26.62 3.083 27 4.603 27z" fill="#0037FC"/><path d="M4.705 24.43c-.68 0-1.204-.18-1.57-.54-.368-.362-.552-.903-.552-1.624V4.746c0-.72.184-1.26.551-1.622.367-.36.891-.541 1.571-.541h25.929c.68 0 1.207.18 1.58.541.371.361.557.902.557 1.622v17.52c0 .721-.186 1.262-.558 1.623-.372.361-.898.542-1.58.542H4.706z" fill="#fff"/><path d="M5.794 22.406H29.56c.79 0 1.186-.405 1.186-1.216V5.823c0-.81-.395-1.216-1.186-1.216H5.794c-.792 0-1.188.405-1.188 1.216V21.19c0 .811.396 1.216 1.188 1.216z" fill="#0037FC"/></svg>