<svg width="30" height="30" viewBox="0 0 30 30" fill="none" xmlns="http://www.w3.org/2000/svg">
<path d="M28.1819 7.47941C25.4627 2.8511 20.4379 0 15.0001 0C9.56221 0 4.5374 2.8511 1.81824 7.47941L2.73153 23.6364L28.1819 7.47941Z" fill="#0037FC"/>
<path d="M8.59063 18.6363L2.02994 7.27271C-0.676614 11.9605 -0.676651 17.7362 2.02985 22.4241C4.73635 27.1119 9.73821 29.9998 15.1513 30L30 14.8485L8.59063 18.6363Z" fill="#0037FC"/>
<path d="M21.7537 18.6366L15.4541 30.0002C20.6513 29.999 25.4531 27.1107 28.0512 22.423C30.6493 17.7353 30.649 11.9603 28.0504 7.27295H15.4541L21.7537 18.6366Z" fill="#408DFF"/>
<path d="M14.9997 22.7275C17.7604 22.7275 20.3114 21.2547 21.6917 18.8639C23.0721 16.473 23.0721 13.5274 21.6917 11.1366C20.3114 8.74576 17.7604 7.27295 14.9997 7.27295C10.7321 7.27295 7.27246 10.7326 7.27246 15.0002C7.27246 19.2679 10.7321 22.7275 14.9997 22.7275Z" fill="white"/>
<path d="M15 20.909C17.1111 20.909 19.0619 19.7827 20.1175 17.9545C21.173 16.1262 21.173 13.8736 20.1175 12.0454C19.0619 10.2171 17.1111 9.09082 15 9.09082C11.7365 9.09082 9.09094 11.7364 9.09094 14.9999C9.09094 18.2634 11.7365 20.909 15 20.909Z" fill="#0037FC"/>
</svg>
