<svg width="28" height="30" viewBox="0 0 28 30" fill="none" xmlns="http://www.w3.org/2000/svg">
<path d="M1.96487 22.8151C1.44168 22.5381 1.11588 22.278 0.9875 22.0348C0.859114 21.7916 0.794922 21.4587 0.794922 21.036V8.42676L13.7784 15.4478V29.1699L1.96487 22.8151Z" fill="#0037FC"/>
<path d="M26.3528 22.8151L14.5381 29.1699V15.4478L27.5082 8.42676V21.036C27.5082 21.4587 27.444 21.7916 27.3157 22.0348C27.1873 22.278 26.8663 22.5381 26.3528 22.8151Z" fill="#0037FC"/>
<path d="M14.1591 14.8132L0.96875 7.69395L7.29282 4.20605L20.5635 11.3409L14.1591 14.8132Z" fill="#0037FC"/>
<path d="M21.3142 10.9472L8.05371 3.78656L13.3529 0.868249C13.891 0.562146 14.4239 0.562146 14.9514 0.868249L27.3493 7.69379L21.3142 10.9472Z" fill="#0037FC"/>
</svg>
